<?xml version="1.0" encoding="UTF-8"?>
<svg id="Layer_2" data-name="Layer 2" xmlns="http://www.w3.org/2000/svg" viewBox="0 0 821.93 684.92">
  <defs>
    <style>
      .cls-1 {
        fill: #fdf0d6;
      }
    </style>
  </defs>
  <g id="OG_Layer" data-name="OG Layer">
    <path class="cls-1" d="M803.31,365.31c-13.26,4.91-26.83,10.17-40.67,15.81-15.04,6.13-29.54,12.37-43.49,18.64-3.31-5.56-29.32-47.61-81.33-54.79-40.01-5.52-80.4,11.66-105.62,44.62-.27-7.77-1.27-17.43-3.95-28.24-2.93-11.78-7.01-21.46-10.73-28.81,1.13.59,21.06,10.56,40.67-1.13,19.49-11.62,20.31-33.68,20.33-35.02,5.65-4.88,12.31-11.55,18.64-20.33,4.35-6.03,7.65-11.82,10.17-16.94,14.91-2.43,66.45-8.96,119.74,21.46,48.97,27.96,69.86,70.25,76.25,84.72Z"/>
    <path class="cls-1" d="M512.57,482.36c-5.76,4.27-16.71,11.23-32.19,14.41-14.06,2.88-25.79,1.39-32.62,0,.29,7.9-.12,18.62-2.97,30.92-2.87,12.38-7.26,22.24-11.01,29.23,8.62,20.32,25.45,51.87,57.61,78.37,57.28,47.19,156.38,72.79,238.49,21.18,66.97-42.1,102.41-122.86,89.38-204.18h-192.74v67.78l98.28.85c-14.23,43.38-53.03,73.61-96.94,75.88-49.39,2.56-86.33-31.26-102.58-62.33-10.83-20.71-12.61-40.48-12.71-52.1Z"/>
    <path class="cls-1" d="M130.48,331.14c-3.06,7.27-6.21,16.38-8.47,27.11-2.4,11.4-3.15,21.56-3.21,29.79-5.02,7.17-37.87,55.83-21.36,114.66,14.32,51.03,61.33,93.86,117.33,95.73,54.95,1.84,90.66-36.7,95.74-42.36,42.58-47.48,31.43-107.32,30.08-113.95,12.24,10.47,28.12,22.24,47.87,33.04,14.65,8.01,28.48,13.88,40.67,18.21-2.92,26.58-13.37,82.99-58.46,127.93-73.03,72.79-191.58,70.28-266.45,28.81-38.6-21.38-60.34-50.22-67.35-60.15C-7.78,526.73-.56,457.69,2.13,438.73c11.32-79.68,63.56-125.87,76.67-136.82,4.56,5.11,11.53,11.79,21.33,17.67,11.85,7.12,22.96,10.15,30.35,11.56Z"/>
    <circle class="cls-1" cx="322.4" cy="238.8" r="50.87"/>
    <path class="cls-1" d="M491.54,13.89c-47.05-35.19-161.82,38.74-256.35,165.12-94.53,126.38-133.02,257.37-85.98,292.56,47.05,35.19,161.82-38.74,256.35-165.12C500.1,180.06,538.59,49.08,491.54,13.89ZM392.75,296.4c-87.65,117.18-191.1,187.93-231.07,158.03-39.97-29.9-1.33-149.13,86.32-266.31C335.65,70.95,439.1.19,479.07,30.09c39.97,29.9,1.33,149.13-86.32,266.31Z"/>
    <path class="cls-1" d="M145.41,8.86c-48.16,35.76-8.87,169.45,87.77,298.62,96.63,129.16,214.01,204.88,262.17,169.12,48.16-35.76,8.87-169.45-87.77-298.62C310.95,48.82,193.57-26.9,145.41,8.86ZM394.01,187.58c89.59,119.75,129.05,241.46,88.14,271.84s-146.72-42.07-236.31-161.82C156.24,177.85,116.78,56.14,157.69,25.76c40.92-30.38,146.72,42.07,236.31,161.82Z"/>
    <path class="cls-1" d="M39.26,239.83c2.56,57.89,129.32,104.36,283.12,103.79,153.8-.57,276.41-47.95,273.84-105.84-2.56-57.89-129.32-104.36-283.12-103.79-153.8.56-276.41,47.95-273.84,105.84ZM313.45,150.03c142.6-.52,259.96,38.92,262.14,88.1,2.18,49.18-111.66,89.47-254.26,90-142.6.52-259.96-38.92-262.14-88.1-2.18-49.18,111.66-89.47,254.26-90Z"/>
    <circle class="cls-1" cx="288.28" cy="54.14" r="27.77"/>
    <ellipse class="cls-1" cx="534.87" cy="291.11" rx="27.16" ry="27.37"/>
  </g>
</svg>